<svg width="512" height="512" viewBox="0 0 512 512" fill="none" xmlns="http://www.w3.org/2000/svg">
<g clip-path="url(#clip0_5105_10665)">
<path d="M0 128C0 57.3076 57.3076 0 128 0H384C454.692 0 512 57.3076 512 128V384C512 454.692 454.692 512 384 512H128C57.3076 512 0 454.692 0 384V128Z" fill="white"/>
<path fill-rule="evenodd" clip-rule="evenodd" d="M361 278C361 273.582 357.418 270 353 270H159C154.582 270 151 273.582 151 278V360C151 364.418 154.582 368 159 368H179.592C183.946 368 187.457 364.506 187.972 360.183C192.298 323.879 221.106 295.823 256 295.823C290.894 295.823 319.702 323.879 324.027 360.183C324.543 364.506 328.054 368 332.408 368H353C357.418 368 361 364.418 361 360V278Z" fill="url(#paint0_linear_5105_10665)"/>
<path d="M116 376C116 371.582 119.582 368 124 368H388C392.418 368 396 371.582 396 376V444C396 448.418 392.418 452 388 452H124C119.582 452 116 448.418 116 444V376Z" fill="url(#paint1_linear_5105_10665)"/>
<path fill-rule="evenodd" clip-rule="evenodd" d="M258 60H254V97V118H258V94.04L304 60H258Z" fill="#FD5C29"/>
<path d="M252.876 113.904C254.478 111.903 257.522 111.903 259.123 113.904L378.801 263.501C380.896 266.12 379.031 270 375.677 270H136.322C132.968 270 131.104 266.12 133.199 263.501L252.876 113.904Z" fill="url(#paint2_linear_5105_10665)"/>
</g>
<defs>
<linearGradient id="paint0_linear_5105_10665" x1="256" y1="270" x2="256" y2="368" gradientUnits="userSpaceOnUse">
<stop stop-color="#FFBD48"/>
<stop offset="1" stop-color="#F4AB2A"/>
</linearGradient>
<linearGradient id="paint1_linear_5105_10665" x1="256" y1="368" x2="256" y2="452" gradientUnits="userSpaceOnUse">
<stop stop-color="#2B9D4C"/>
<stop offset="1" stop-color="#19903C"/>
</linearGradient>
<linearGradient id="paint2_linear_5105_10665" x1="256" y1="110" x2="256" y2="270" gradientUnits="userSpaceOnUse">
<stop stop-color="#48A5DB"/>
<stop offset="1" stop-color="#2B92CD"/>
</linearGradient>
<clipPath id="clip0_5105_10665">
<rect width="512" height="512" fill="white"/>
</clipPath>
</defs>
</svg>
